<svg xmlns="http://www.w3.org/2000/svg" xmlns:xlink="http://www.w3.org/1999/xlink" width="500" zoomAndPan="magnify" viewBox="0 0 375 374.999991" height="375" preserveAspectRatio="xMidYMid meet" version="1.0"><defs><g/></defs><g fill="#ffffff" fill-opacity="1"><g transform="translate(58.015221, 210.707318)"><g><path d="M 45.742188 1.644531 C 51.289062 -12.214844 89.234375 -51.546875 89.0625 -66.015625 C 88.972656 -70.175781 86.636719 -73.378906 80.570312 -73.292969 C 53.105469 -72.945312 2.773438 -35.347656 2.945312 -16.113281 C 3.03125 -13.6875 4.679688 -10.136719 8.316406 -10.222656 C 11.523438 -10.222656 15.855469 -12.5625 15.855469 -13.253906 C 15.160156 -13.167969 12.910156 -12.648438 11.957031 -12.648438 C 9.875 -12.648438 8.75 -12.734375 8.75 -13.773438 C 8.578125 -28.417969 59.863281 -71.5625 80.3125 -71.820312 C 82.824219 -71.820312 85.164062 -71.386719 85.164062 -68.183594 C 85.25 -59.953125 28.761719 1.820312 28.847656 16.027344 C 28.847656 17.414062 34.132812 20.359375 34.132812 18.886719 C 34.046875 13.515625 77.796875 -22.4375 86.546875 -28.15625 C 79.703125 -25.730469 52.328125 -3.898438 45.742188 1.644531 Z M 45.742188 1.644531 "/></g></g></g><g fill="#ffffff" fill-opacity="1"><g transform="translate(127.667373, 210.707318)"><g><path d="M 42.796875 -28.15625 C 43.925781 -29.109375 41.152344 -33.789062 39.074219 -33.789062 C 36.125 -33.789062 20.878906 -22.09375 11.175781 -12.5625 C 9.355469 -10.828125 7.710938 -9.097656 6.757812 -7.710938 C 8.058594 -10.136719 12.5625 -16.546875 16.632812 -21.917969 C 19.234375 -25.296875 22.4375 -28.9375 23.566406 -28.847656 C 24.257812 -28.761719 24.605469 -28.328125 24.605469 -28.675781 C 24.605469 -30.84375 21.3125 -34.222656 19.144531 -34.222656 C 18.886719 -34.222656 18.367188 -34.132812 18.019531 -33.789062 C 15.769531 -32.054688 11.957031 -27.464844 8.835938 -23.046875 C 5.976562 -19.058594 2.6875 -13.949219 0.605469 -9.875 C -1.558594 -5.890625 -1.992188 -3.550781 -1.820312 -2.945312 C -1.125 -0.433594 0.953125 2.339844 3.550781 1.734375 C 2.253906 1.125 2.859375 -1.214844 5.199219 -3.984375 C 6.152344 -5.199219 7.191406 -6.496094 8.316406 -7.625 C 14.726562 -14.554688 27.464844 -25.039062 34.566406 -28.242188 C 30.0625 -24.171875 20.011719 -9.703125 20.011719 -4.765625 C 20.011719 -3.8125 20.621094 -2.511719 21.570312 -1.386719 C 22.4375 -0.347656 23.390625 0.433594 24.257812 0.433594 C 29.457031 0.433594 43.578125 -13.863281 51.113281 -22.09375 C 51.375 -22.351562 50.941406 -23.046875 50.421875 -22.613281 C 44.878906 -17.414062 32.488281 -5.542969 27.03125 -4.070312 C 27.203125 -8.144531 40.632812 -26.421875 42.796875 -28.15625 Z M 42.796875 -28.15625 "/></g></g></g><g fill="#ffffff" fill-opacity="1"><g transform="translate(168.124528, 210.707318)"><g><path d="M 29.628906 -30.753906 C 29.457031 -29.023438 23.652344 -22.957031 23.390625 -22.957031 C 23.304688 -22.957031 23.476562 -22.613281 23.566406 -22.613281 C 25.902344 -22.613281 31.363281 -27.808594 31.449219 -29.023438 C 31.707031 -31.535156 30.582031 -35.519531 28.15625 -35.519531 C 20.53125 -35.519531 8.058594 -29.023438 6.671875 -22.4375 C 5.890625 -18.625 11.003906 -15.507812 11.957031 -14.292969 C 8.921875 -13.082031 -3.8125 -5.804688 -4.070312 -2.078125 C -3.640625 -0.171875 -2.6875 1.386719 -0.78125 1.386719 C 4.851562 1.386719 16.289062 -3.207031 17.5 -8.835938 C 17.761719 -10.65625 15.59375 -13.167969 14.46875 -14.035156 C 23.910156 -19.667969 41.066406 -24.171875 40.285156 -24.429688 C 40.285156 -24.691406 39.9375 -24.863281 39.765625 -24.863281 C 38.640625 -24.863281 27.550781 -22.957031 13.6875 -15.160156 C 12.820312 -15.941406 10.742188 -17.328125 11.089844 -18.800781 C 12.214844 -22.871094 25.644531 -31.101562 29.628906 -30.753906 Z M 12.300781 -12.820312 C 12.300781 -9.53125 1.558594 -3.984375 -1.820312 -3.03125 C 0.691406 -5.542969 7.105469 -9.875 12.300781 -12.820312 Z M 12.300781 -12.820312 "/></g></g></g><g fill="#ffffff" fill-opacity="1"><g transform="translate(192.641397, 210.707318)"><g><path d="M 11.003906 -25.472656 C -2.164062 -8.578125 -19.492188 18.539062 -21.3125 33.09375 C -22.003906 38.378906 -18.105469 41.585938 -14.121094 40.027344 C -16.113281 39.765625 -16.113281 38.03125 -15.679688 35.867188 C -13.515625 23.046875 -1.300781 4.589844 7.105469 -7.449219 C 22.179688 -23.304688 36.125 -30.234375 37.425781 -30.234375 C 36.386719 -25.382812 20.792969 -2.945312 12.042969 -2.945312 C 10.222656 -2.945312 8.75 -4.589844 8.75 -5.457031 C 8.75 -5.71875 8.316406 -5.542969 8.316406 -5.113281 C 8.316406 -2.253906 12.300781 -0.0859375 15.679688 -0.0859375 C 27.550781 -0.0859375 44.53125 -20.878906 44.53125 -28.675781 C 44.53125 -29.976562 41.5 -33.269531 40.371094 -33.699219 C 36.039062 -35.175781 19.839844 -23.390625 12.300781 -15.160156 C 12.300781 -15.160156 16.027344 -20.53125 17.152344 -21.917969 C 19.925781 -25.472656 22.957031 -29.023438 24.257812 -28.847656 C 24.863281 -28.761719 25.125 -28.417969 25.125 -28.675781 C 25.125 -30.929688 21.832031 -34.308594 19.839844 -34.308594 C 19.578125 -34.308594 19.058594 -34.222656 18.539062 -33.789062 C 16.808594 -32.402344 13.34375 -28.417969 11.003906 -25.472656 Z M 11.003906 -25.472656 "/></g></g></g><g fill="#ffffff" fill-opacity="1"><g transform="translate(232.23223, 210.707318)"><g><path d="M 2.253906 0.605469 C 7.625 0.171875 21.398438 -13.949219 28.9375 -22.09375 C 29.195312 -22.351562 28.761719 -23.046875 28.15625 -22.613281 C 22.871094 -17.5 10.222656 -5.457031 4.9375 -4.070312 C 5.976562 -7.625 17.847656 -27.375 21.398438 -27.03125 C 22.09375 -26.945312 22.523438 -26.511719 22.523438 -26.855469 C 22.523438 -29.023438 19.058594 -32.488281 17.066406 -32.488281 C 16.71875 -32.488281 16.199219 -32.402344 15.769531 -31.96875 C 10.222656 -27.550781 -2.339844 -8.664062 -2.339844 -3.640625 C -2.339844 -2.078125 -0.171875 0.0859375 1.214844 0.519531 C 1.644531 0.605469 1.90625 0.605469 2.253906 0.605469 Z M 25.125 -45.742188 C 22.871094 -45.050781 19.578125 -39.417969 19.667969 -36.90625 C 19.753906 -35.347656 21.570312 -33.527344 22.785156 -35.085938 C 23.824219 -36.558594 27.808594 -40.113281 29.28125 -40.71875 C 30.234375 -41.152344 30.929688 -40.804688 31.101562 -40.804688 C 31.449219 -40.804688 30.929688 -42.105469 30.148438 -42.972656 C 29.023438 -44.269531 27.117188 -46.003906 25.125 -45.742188 Z M 25.125 -45.742188 "/></g></g></g><g fill="#ffffff" fill-opacity="1"><g transform="translate(251.72444, 210.707318)"><g><path d="M 8.492188 -23.046875 C 5.023438 -18.105469 1.125 -12.128906 -1.039062 -7.191406 C -2.078125 -5.199219 -2.511719 -3.550781 -2.339844 -2.773438 C -1.734375 -0.347656 0.347656 2.339844 2.859375 1.734375 C 0.953125 0.867188 6.152344 -6.757812 10.570312 -11.523438 C 16.460938 -18.019531 20.53125 -21.484375 28.503906 -26.164062 C 26.25 -23.566406 23.476562 -18.539062 23.476562 -16.113281 C 23.476562 -15.074219 26.078125 -12.042969 27.636719 -12.042969 C 33.613281 -12.042969 44.011719 -21.746094 45.570312 -23.824219 C 45.484375 -23.996094 44.964844 -23.910156 44.878906 -23.824219 C 39.503906 -19.058594 33.527344 -15.160156 29.371094 -14.816406 C 32.226562 -21.570312 39.417969 -27.898438 41.324219 -29.890625 C 41.929688 -30.582031 38.378906 -34.308594 37.425781 -34.222656 C 35.605469 -34.046875 33.007812 -32.574219 29.628906 -30.148438 C 22.179688 -24.777344 13.515625 -17.5 8.921875 -11.523438 C 10.742188 -14.726562 13.773438 -18.800781 16.113281 -21.917969 C 18.714844 -25.382812 21.746094 -28.761719 23.046875 -28.675781 C 23.738281 -28.589844 23.996094 -28.15625 23.996094 -28.503906 C 23.996094 -30.667969 20.707031 -34.046875 18.625 -34.046875 C 18.28125 -34.046875 17.933594 -33.960938 17.414062 -33.613281 C 15.246094 -31.882812 11.523438 -27.464844 8.492188 -23.046875 Z M 8.492188 -23.046875 "/></g></g></g><g fill="#ffffff" fill-opacity="1"><g transform="translate(286.98369, 210.707318)"><g><path d="M 8.835938 -11.695312 C 18.539062 -11.957031 35.175781 -24.429688 35.175781 -29.800781 C 35.175781 -32.226562 31.1875 -34.222656 29.890625 -34.222656 C 26.164062 -34.222656 18.453125 -31.535156 11.261719 -25.558594 C 5.804688 -20.964844 1.386719 -15.507812 -0.691406 -10.570312 C -1.386719 -8.664062 -1.90625 -6.929688 -1.90625 -4.851562 C -1.90625 -2.511719 1.558594 0.605469 4.246094 0.605469 C 15.769531 0.605469 33.007812 -15.941406 39.503906 -22.003906 C 39.765625 -22.265625 39.160156 -22.699219 38.898438 -22.523438 C 30.148438 -15.246094 14.292969 -3.207031 7.96875 -3.207031 C 6.066406 -3.207031 5.285156 -3.8125 5.371094 -4.851562 C 5.632812 -7.105469 7.277344 -9.875 8.835938 -11.695312 Z M 32.402344 -31.621094 C 31.882812 -28.328125 17.5 -14.292969 9.964844 -13.429688 C 12.820312 -18.019531 22.785156 -28.503906 32.402344 -31.621094 Z M 32.402344 -31.621094 "/></g></g></g><g fill="#ffffff" fill-opacity="1"><g transform="translate(131.139356, 236.149936)"><g><path d="M 8.390625 -8.40625 L 8.390625 0 L 7.515625 0 L 7.515625 -3.875 L 2.25 -3.875 L 2.25 0 L 1.375 0 L 1.375 -8.40625 L 2.25 -8.40625 L 2.25 -4.65625 L 7.515625 -4.65625 L 7.515625 -8.40625 Z M 8.390625 -8.40625 "/></g></g></g><g fill="#ffffff" fill-opacity="1"><g transform="translate(140.885785, 236.149936)"><g><path d="M 3.765625 0.0625 C 3.160156 0.0625 2.613281 -0.0703125 2.125 -0.34375 C 1.632812 -0.625 1.25 -1.007812 0.96875 -1.5 C 0.6875 -1.988281 0.546875 -2.539062 0.546875 -3.15625 C 0.546875 -3.769531 0.6875 -4.320312 0.96875 -4.8125 C 1.25 -5.300781 1.632812 -5.679688 2.125 -5.953125 C 2.613281 -6.222656 3.160156 -6.359375 3.765625 -6.359375 C 4.378906 -6.359375 4.925781 -6.222656 5.40625 -5.953125 C 5.894531 -5.679688 6.273438 -5.300781 6.546875 -4.8125 C 6.828125 -4.320312 6.96875 -3.769531 6.96875 -3.15625 C 6.96875 -2.539062 6.828125 -1.988281 6.546875 -1.5 C 6.273438 -1.007812 5.894531 -0.625 5.40625 -0.34375 C 4.925781 -0.0703125 4.378906 0.0625 3.765625 0.0625 Z M 3.765625 -0.703125 C 4.210938 -0.703125 4.613281 -0.800781 4.96875 -1 C 5.332031 -1.207031 5.613281 -1.5 5.8125 -1.875 C 6.007812 -2.25 6.109375 -2.675781 6.109375 -3.15625 C 6.109375 -3.632812 6.007812 -4.0625 5.8125 -4.4375 C 5.613281 -4.8125 5.332031 -5.097656 4.96875 -5.296875 C 4.613281 -5.503906 4.210938 -5.609375 3.765625 -5.609375 C 3.316406 -5.609375 2.914062 -5.503906 2.5625 -5.296875 C 2.207031 -5.097656 1.925781 -4.8125 1.71875 -4.4375 C 1.519531 -4.0625 1.421875 -3.632812 1.421875 -3.15625 C 1.421875 -2.675781 1.519531 -2.25 1.71875 -1.875 C 1.925781 -1.5 2.207031 -1.207031 2.5625 -1 C 2.914062 -0.800781 3.316406 -0.703125 3.765625 -0.703125 Z M 3.765625 -0.703125 "/></g></g></g><g fill="#ffffff" fill-opacity="1"><g transform="translate(148.402401, 236.149936)"><g><path d="M 9.0625 -6.359375 C 9.851562 -6.359375 10.472656 -6.128906 10.921875 -5.671875 C 11.378906 -5.210938 11.609375 -4.539062 11.609375 -3.65625 L 11.609375 0 L 10.75 0 L 10.75 -3.578125 C 10.75 -4.234375 10.585938 -4.734375 10.265625 -5.078125 C 9.953125 -5.421875 9.507812 -5.59375 8.9375 -5.59375 C 8.28125 -5.59375 7.765625 -5.390625 7.390625 -4.984375 C 7.015625 -4.578125 6.828125 -4.019531 6.828125 -3.3125 L 6.828125 0 L 5.96875 0 L 5.96875 -3.578125 C 5.96875 -4.234375 5.8125 -4.734375 5.5 -5.078125 C 5.1875 -5.421875 4.738281 -5.59375 4.15625 -5.59375 C 3.507812 -5.59375 2.992188 -5.390625 2.609375 -4.984375 C 2.234375 -4.578125 2.046875 -4.019531 2.046875 -3.3125 L 2.046875 0 L 1.1875 0 L 1.1875 -6.3125 L 2 -6.3125 L 2 -5.15625 C 2.226562 -5.539062 2.539062 -5.835938 2.9375 -6.046875 C 3.34375 -6.253906 3.800781 -6.359375 4.3125 -6.359375 C 4.84375 -6.359375 5.300781 -6.242188 5.6875 -6.015625 C 6.082031 -5.796875 6.375 -5.46875 6.5625 -5.03125 C 6.789062 -5.445312 7.125 -5.769531 7.5625 -6 C 8 -6.238281 8.5 -6.359375 9.0625 -6.359375 Z M 9.0625 -6.359375 "/></g></g></g><g fill="#ffffff" fill-opacity="1"><g transform="translate(161.121901, 236.149936)"><g><path d="M 6.6875 -2.890625 L 1.40625 -2.890625 C 1.445312 -2.234375 1.695312 -1.703125 2.15625 -1.296875 C 2.613281 -0.898438 3.191406 -0.703125 3.890625 -0.703125 C 4.273438 -0.703125 4.628906 -0.769531 4.953125 -0.90625 C 5.285156 -1.039062 5.570312 -1.25 5.8125 -1.53125 L 6.296875 -0.96875 C 6.015625 -0.632812 5.664062 -0.378906 5.25 -0.203125 C 4.832031 -0.0234375 4.367188 0.0625 3.859375 0.0625 C 3.210938 0.0625 2.640625 -0.0703125 2.140625 -0.34375 C 1.640625 -0.625 1.25 -1.007812 0.96875 -1.5 C 0.6875 -1.988281 0.546875 -2.539062 0.546875 -3.15625 C 0.546875 -3.769531 0.679688 -4.320312 0.953125 -4.8125 C 1.222656 -5.300781 1.59375 -5.679688 2.0625 -5.953125 C 2.53125 -6.222656 3.054688 -6.359375 3.640625 -6.359375 C 4.222656 -6.359375 4.742188 -6.222656 5.203125 -5.953125 C 5.671875 -5.679688 6.035156 -5.300781 6.296875 -4.8125 C 6.566406 -4.332031 6.703125 -3.78125 6.703125 -3.15625 Z M 3.640625 -5.625 C 3.023438 -5.625 2.507812 -5.429688 2.09375 -5.046875 C 1.6875 -4.660156 1.457031 -4.15625 1.40625 -3.53125 L 5.875 -3.53125 C 5.820312 -4.15625 5.585938 -4.660156 5.171875 -5.046875 C 4.765625 -5.429688 4.253906 -5.625 3.640625 -5.625 Z M 3.640625 -5.625 "/></g></g></g><g fill="#ffffff" fill-opacity="1"><g transform="translate(187.499992, 236.149936)"><g><path d="M 7.109375 0 L 5.1875 -2.703125 C 4.96875 -2.671875 4.742188 -2.65625 4.515625 -2.65625 L 2.25 -2.65625 L 2.25 0 L 1.375 0 L 1.375 -8.40625 L 4.515625 -8.40625 C 5.585938 -8.40625 6.425781 -8.144531 7.03125 -7.625 C 7.632812 -7.113281 7.9375 -6.410156 7.9375 -5.515625 C 7.9375 -4.859375 7.769531 -4.304688 7.4375 -3.859375 C 7.113281 -3.410156 6.644531 -3.082031 6.03125 -2.875 L 8.078125 0 Z M 4.484375 -3.421875 C 5.316406 -3.421875 5.953125 -3.601562 6.390625 -3.96875 C 6.835938 -4.34375 7.0625 -4.859375 7.0625 -5.515625 C 7.0625 -6.203125 6.835938 -6.722656 6.390625 -7.078125 C 5.953125 -7.441406 5.316406 -7.625 4.484375 -7.625 L 2.25 -7.625 L 2.25 -3.421875 Z M 4.484375 -3.421875 "/></g></g></g><g fill="#ffffff" fill-opacity="1"><g transform="translate(196.167472, 236.149936)"><g><path d="M 6.6875 -2.890625 L 1.40625 -2.890625 C 1.445312 -2.234375 1.695312 -1.703125 2.15625 -1.296875 C 2.613281 -0.898438 3.191406 -0.703125 3.890625 -0.703125 C 4.273438 -0.703125 4.628906 -0.769531 4.953125 -0.90625 C 5.285156 -1.039062 5.570312 -1.25 5.8125 -1.53125 L 6.296875 -0.96875 C 6.015625 -0.632812 5.664062 -0.378906 5.25 -0.203125 C 4.832031 -0.0234375 4.367188 0.0625 3.859375 0.0625 C 3.210938 0.0625 2.640625 -0.0703125 2.140625 -0.34375 C 1.640625 -0.625 1.25 -1.007812 0.96875 -1.5 C 0.6875 -1.988281 0.546875 -2.539062 0.546875 -3.15625 C 0.546875 -3.769531 0.679688 -4.320312 0.953125 -4.8125 C 1.222656 -5.300781 1.59375 -5.679688 2.0625 -5.953125 C 2.53125 -6.222656 3.054688 -6.359375 3.640625 -6.359375 C 4.222656 -6.359375 4.742188 -6.222656 5.203125 -5.953125 C 5.671875 -5.679688 6.035156 -5.300781 6.296875 -4.8125 C 6.566406 -4.332031 6.703125 -3.78125 6.703125 -3.15625 Z M 3.640625 -5.625 C 3.023438 -5.625 2.507812 -5.429688 2.09375 -5.046875 C 1.6875 -4.660156 1.457031 -4.15625 1.40625 -3.53125 L 5.875 -3.53125 C 5.820312 -4.15625 5.585938 -4.660156 5.171875 -5.046875 C 4.765625 -5.429688 4.253906 -5.625 3.640625 -5.625 Z M 3.640625 -5.625 "/></g></g></g><g fill="#ffffff" fill-opacity="1"><g transform="translate(203.408354, 236.149936)"><g><path d="M 9.0625 -6.359375 C 9.851562 -6.359375 10.472656 -6.128906 10.921875 -5.671875 C 11.378906 -5.210938 11.609375 -4.539062 11.609375 -3.65625 L 11.609375 0 L 10.75 0 L 10.75 -3.578125 C 10.75 -4.234375 10.585938 -4.734375 10.265625 -5.078125 C 9.953125 -5.421875 9.507812 -5.59375 8.9375 -5.59375 C 8.28125 -5.59375 7.765625 -5.390625 7.390625 -4.984375 C 7.015625 -4.578125 6.828125 -4.019531 6.828125 -3.3125 L 6.828125 0 L 5.96875 0 L 5.96875 -3.578125 C 5.96875 -4.234375 5.8125 -4.734375 5.5 -5.078125 C 5.1875 -5.421875 4.738281 -5.59375 4.15625 -5.59375 C 3.507812 -5.59375 2.992188 -5.390625 2.609375 -4.984375 C 2.234375 -4.578125 2.046875 -4.019531 2.046875 -3.3125 L 2.046875 0 L 1.1875 0 L 1.1875 -6.3125 L 2 -6.3125 L 2 -5.15625 C 2.226562 -5.539062 2.539062 -5.835938 2.9375 -6.046875 C 3.34375 -6.253906 3.800781 -6.359375 4.3125 -6.359375 C 4.84375 -6.359375 5.300781 -6.242188 5.6875 -6.015625 C 6.082031 -5.796875 6.375 -5.46875 6.5625 -5.03125 C 6.789062 -5.445312 7.125 -5.769531 7.5625 -6 C 8 -6.238281 8.5 -6.359375 9.0625 -6.359375 Z M 9.0625 -6.359375 "/></g></g></g><g fill="#ffffff" fill-opacity="1"><g transform="translate(216.127855, 236.149936)"><g><path d="M 3.765625 0.0625 C 3.160156 0.0625 2.613281 -0.0703125 2.125 -0.34375 C 1.632812 -0.625 1.25 -1.007812 0.96875 -1.5 C 0.6875 -1.988281 0.546875 -2.539062 0.546875 -3.15625 C 0.546875 -3.769531 0.6875 -4.320312 0.96875 -4.8125 C 1.25 -5.300781 1.632812 -5.679688 2.125 -5.953125 C 2.613281 -6.222656 3.160156 -6.359375 3.765625 -6.359375 C 4.378906 -6.359375 4.925781 -6.222656 5.40625 -5.953125 C 5.894531 -5.679688 6.273438 -5.300781 6.546875 -4.8125 C 6.828125 -4.320312 6.96875 -3.769531 6.96875 -3.15625 C 6.96875 -2.539062 6.828125 -1.988281 6.546875 -1.5 C 6.273438 -1.007812 5.894531 -0.625 5.40625 -0.34375 C 4.925781 -0.0703125 4.378906 0.0625 3.765625 0.0625 Z M 3.765625 -0.703125 C 4.210938 -0.703125 4.613281 -0.800781 4.96875 -1 C 5.332031 -1.207031 5.613281 -1.5 5.8125 -1.875 C 6.007812 -2.25 6.109375 -2.675781 6.109375 -3.15625 C 6.109375 -3.632812 6.007812 -4.0625 5.8125 -4.4375 C 5.613281 -4.8125 5.332031 -5.097656 4.96875 -5.296875 C 4.613281 -5.503906 4.210938 -5.609375 3.765625 -5.609375 C 3.316406 -5.609375 2.914062 -5.503906 2.5625 -5.296875 C 2.207031 -5.097656 1.925781 -4.8125 1.71875 -4.4375 C 1.519531 -4.0625 1.421875 -3.632812 1.421875 -3.15625 C 1.421875 -2.675781 1.519531 -2.25 1.71875 -1.875 C 1.925781 -1.5 2.207031 -1.207031 2.5625 -1 C 2.914062 -0.800781 3.316406 -0.703125 3.765625 -0.703125 Z M 3.765625 -0.703125 "/></g></g></g><g fill="#ffffff" fill-opacity="1"><g transform="translate(223.644471, 236.149936)"><g><path d="M 6.953125 -8.90625 L 6.953125 0 L 6.125 0 L 6.125 -1.25 C 5.875 -0.820312 5.535156 -0.492188 5.109375 -0.265625 C 4.691406 -0.046875 4.222656 0.0625 3.703125 0.0625 C 3.109375 0.0625 2.570312 -0.0703125 2.09375 -0.34375 C 1.613281 -0.613281 1.234375 -0.992188 0.953125 -1.484375 C 0.679688 -1.972656 0.546875 -2.53125 0.546875 -3.15625 C 0.546875 -3.78125 0.679688 -4.335938 0.953125 -4.828125 C 1.234375 -5.316406 1.613281 -5.691406 2.09375 -5.953125 C 2.570312 -6.222656 3.109375 -6.359375 3.703125 -6.359375 C 4.210938 -6.359375 4.671875 -6.25 5.078125 -6.03125 C 5.492188 -5.820312 5.832031 -5.515625 6.09375 -5.109375 L 6.09375 -8.90625 Z M 3.765625 -0.703125 C 4.203125 -0.703125 4.597656 -0.800781 4.953125 -1 C 5.316406 -1.207031 5.597656 -1.5 5.796875 -1.875 C 6.003906 -2.25 6.109375 -2.675781 6.109375 -3.15625 C 6.109375 -3.632812 6.003906 -4.0625 5.796875 -4.4375 C 5.597656 -4.8125 5.316406 -5.097656 4.953125 -5.296875 C 4.597656 -5.503906 4.203125 -5.609375 3.765625 -5.609375 C 3.316406 -5.609375 2.914062 -5.503906 2.5625 -5.296875 C 2.207031 -5.097656 1.925781 -4.8125 1.71875 -4.4375 C 1.519531 -4.0625 1.421875 -3.632812 1.421875 -3.15625 C 1.421875 -2.675781 1.519531 -2.25 1.71875 -1.875 C 1.925781 -1.5 2.207031 -1.207031 2.5625 -1 C 2.914062 -0.800781 3.316406 -0.703125 3.765625 -0.703125 Z M 3.765625 -0.703125 "/></g></g></g><g fill="#ffffff" fill-opacity="1"><g transform="translate(231.772488, 236.149936)"><g><path d="M 6.6875 -2.890625 L 1.40625 -2.890625 C 1.445312 -2.234375 1.695312 -1.703125 2.15625 -1.296875 C 2.613281 -0.898438 3.191406 -0.703125 3.890625 -0.703125 C 4.273438 -0.703125 4.628906 -0.769531 4.953125 -0.90625 C 5.285156 -1.039062 5.570312 -1.25 5.8125 -1.53125 L 6.296875 -0.96875 C 6.015625 -0.632812 5.664062 -0.378906 5.25 -0.203125 C 4.832031 -0.0234375 4.367188 0.0625 3.859375 0.0625 C 3.210938 0.0625 2.640625 -0.0703125 2.140625 -0.34375 C 1.640625 -0.625 1.25 -1.007812 0.96875 -1.5 C 0.6875 -1.988281 0.546875 -2.539062 0.546875 -3.15625 C 0.546875 -3.769531 0.679688 -4.320312 0.953125 -4.8125 C 1.222656 -5.300781 1.59375 -5.679688 2.0625 -5.953125 C 2.53125 -6.222656 3.054688 -6.359375 3.640625 -6.359375 C 4.222656 -6.359375 4.742188 -6.222656 5.203125 -5.953125 C 5.671875 -5.679688 6.035156 -5.300781 6.296875 -4.8125 C 6.566406 -4.332031 6.703125 -3.78125 6.703125 -3.15625 Z M 3.640625 -5.625 C 3.023438 -5.625 2.507812 -5.429688 2.09375 -5.046875 C 1.6875 -4.660156 1.457031 -4.15625 1.40625 -3.53125 L 5.875 -3.53125 C 5.820312 -4.15625 5.585938 -4.660156 5.171875 -5.046875 C 4.765625 -5.429688 4.253906 -5.625 3.640625 -5.625 Z M 3.640625 -5.625 "/></g></g></g><g fill="#ffffff" fill-opacity="1"><g transform="translate(239.013371, 236.149936)"><g><path d="M 1.1875 -8.90625 L 2.046875 -8.90625 L 2.046875 0 L 1.1875 0 Z M 1.1875 -8.90625 "/></g></g></g><g fill="#ffffff" fill-opacity="1"><g transform="translate(242.238201, 236.149936)"><g><path d="M 1.1875 -6.3125 L 2.046875 -6.3125 L 2.046875 0 L 1.1875 0 Z M 1.625 -7.6875 C 1.445312 -7.6875 1.296875 -7.742188 1.171875 -7.859375 C 1.054688 -7.984375 1 -8.128906 1 -8.296875 C 1 -8.460938 1.054688 -8.601562 1.171875 -8.71875 C 1.296875 -8.84375 1.445312 -8.90625 1.625 -8.90625 C 1.789062 -8.90625 1.9375 -8.847656 2.0625 -8.734375 C 2.1875 -8.617188 2.25 -8.476562 2.25 -8.3125 C 2.25 -8.132812 2.1875 -7.984375 2.0625 -7.859375 C 1.9375 -7.742188 1.789062 -7.6875 1.625 -7.6875 Z M 1.625 -7.6875 "/></g></g></g><g fill="#ffffff" fill-opacity="1"><g transform="translate(245.463031, 236.149936)"><g><path d="M 4.40625 -6.359375 C 5.195312 -6.359375 5.828125 -6.128906 6.296875 -5.671875 C 6.765625 -5.210938 7 -4.539062 7 -3.65625 L 7 0 L 6.140625 0 L 6.140625 -3.578125 C 6.140625 -4.234375 5.972656 -4.734375 5.640625 -5.078125 C 5.316406 -5.421875 4.851562 -5.59375 4.25 -5.59375 C 3.570312 -5.59375 3.035156 -5.390625 2.640625 -4.984375 C 2.242188 -4.578125 2.046875 -4.019531 2.046875 -3.3125 L 2.046875 0 L 1.1875 0 L 1.1875 -6.3125 L 2 -6.3125 L 2 -5.140625 C 2.238281 -5.523438 2.5625 -5.820312 2.96875 -6.03125 C 3.382812 -6.25 3.863281 -6.359375 4.40625 -6.359375 Z M 4.40625 -6.359375 "/></g></g></g><g fill="#ffffff" fill-opacity="1"><g transform="translate(253.579055, 236.149936)"><g><path d="M 7.03125 -6.3125 L 7.03125 -0.765625 C 7.03125 0.304688 6.765625 1.097656 6.234375 1.609375 C 5.710938 2.128906 4.925781 2.390625 3.875 2.390625 C 3.289062 2.390625 2.734375 2.300781 2.203125 2.125 C 1.679688 1.957031 1.257812 1.722656 0.9375 1.421875 L 1.375 0.765625 C 1.675781 1.035156 2.039062 1.242188 2.46875 1.390625 C 2.90625 1.546875 3.367188 1.625 3.859375 1.625 C 4.648438 1.625 5.234375 1.4375 5.609375 1.0625 C 5.992188 0.695312 6.1875 0.125 6.1875 -0.65625 L 6.1875 -1.46875 C 5.914062 -1.0625 5.566406 -0.753906 5.140625 -0.546875 C 4.710938 -0.335938 4.238281 -0.234375 3.71875 -0.234375 C 3.125 -0.234375 2.582031 -0.363281 2.09375 -0.625 C 1.613281 -0.882812 1.234375 -1.25 0.953125 -1.71875 C 0.679688 -2.1875 0.546875 -2.71875 0.546875 -3.3125 C 0.546875 -3.90625 0.679688 -4.429688 0.953125 -4.890625 C 1.234375 -5.359375 1.613281 -5.71875 2.09375 -5.96875 C 2.570312 -6.226562 3.113281 -6.359375 3.71875 -6.359375 C 4.257812 -6.359375 4.742188 -6.25 5.171875 -6.03125 C 5.597656 -5.820312 5.945312 -5.507812 6.21875 -5.09375 L 6.21875 -6.3125 Z M 3.796875 -1 C 4.253906 -1 4.664062 -1.09375 5.03125 -1.28125 C 5.40625 -1.476562 5.691406 -1.753906 5.890625 -2.109375 C 6.097656 -2.460938 6.203125 -2.863281 6.203125 -3.3125 C 6.203125 -3.757812 6.097656 -4.15625 5.890625 -4.5 C 5.691406 -4.851562 5.410156 -5.125 5.046875 -5.3125 C 4.679688 -5.507812 4.265625 -5.609375 3.796875 -5.609375 C 3.347656 -5.609375 2.941406 -5.515625 2.578125 -5.328125 C 2.210938 -5.140625 1.925781 -4.867188 1.71875 -4.515625 C 1.519531 -4.160156 1.421875 -3.757812 1.421875 -3.3125 C 1.421875 -2.863281 1.519531 -2.460938 1.71875 -2.109375 C 1.925781 -1.753906 2.210938 -1.476562 2.578125 -1.28125 C 2.941406 -1.09375 3.347656 -1 3.796875 -1 Z M 3.796875 -1 "/></g></g></g></svg>