<svg xmlns="http://www.w3.org/2000/svg" xmlns:xlink="http://www.w3.org/1999/xlink" width="124" zoomAndPan="magnify" viewBox="0 0 93 46.499999" height="62" preserveAspectRatio="xMidYMid meet" version="1.0"><style>
        path {
            fill: black;
        }
        @media (prefers-color-scheme: dark) {
            path { fill: white; }
        }
    </style><defs><g/></defs><g fill="#000000" fill-opacity="1"><g transform="translate(3.69892, 27.596173)"><g><path d="M 14.550781 0.523438 C 16.316406 -3.886719 28.386719 -16.398438 28.332031 -21 C 28.304688 -22.324219 27.5625 -23.34375 25.632812 -23.316406 C 16.894531 -23.207031 0.882812 -11.246094 0.9375 -5.125 C 0.964844 -4.355469 1.488281 -3.226562 2.644531 -3.253906 C 3.664062 -3.253906 5.042969 -3.996094 5.042969 -4.21875 C 4.824219 -4.1875 4.105469 -4.023438 3.804688 -4.023438 C 3.140625 -4.023438 2.785156 -4.050781 2.785156 -4.382812 C 2.730469 -9.039062 19.042969 -22.765625 25.550781 -22.847656 C 26.347656 -22.847656 27.09375 -22.710938 27.09375 -21.691406 C 27.121094 -19.074219 9.148438 0.578125 9.179688 5.097656 C 9.179688 5.539062 10.859375 6.476562 10.859375 6.007812 C 10.832031 4.300781 24.75 -7.136719 27.535156 -8.957031 C 25.355469 -8.1875 16.648438 -1.242188 14.550781 0.523438 Z M 14.550781 0.523438 "/></g></g></g><g fill="#000000" fill-opacity="1"><g transform="translate(25.858199, 27.596173)"><g><path d="M 13.613281 -8.957031 C 13.972656 -9.261719 13.089844 -10.75 12.429688 -10.75 C 11.492188 -10.75 6.640625 -7.027344 3.554688 -3.996094 C 2.976562 -3.445312 2.453125 -2.894531 2.148438 -2.453125 C 2.5625 -3.226562 3.996094 -5.265625 5.292969 -6.972656 C 6.117188 -8.046875 7.136719 -9.207031 7.496094 -9.179688 C 7.71875 -9.148438 7.828125 -9.011719 7.828125 -9.121094 C 7.828125 -9.8125 6.78125 -10.886719 6.089844 -10.886719 C 6.007812 -10.886719 5.84375 -10.859375 5.734375 -10.75 C 5.015625 -10.199219 3.804688 -8.738281 2.8125 -7.332031 C 1.902344 -6.0625 0.855469 -4.4375 0.191406 -3.140625 C -0.496094 -1.875 -0.632812 -1.128906 -0.578125 -0.9375 C -0.359375 -0.136719 0.304688 0.746094 1.128906 0.550781 C 0.714844 0.359375 0.910156 -0.386719 1.652344 -1.269531 C 1.957031 -1.652344 2.289062 -2.066406 2.644531 -2.425781 C 4.683594 -4.628906 8.738281 -7.964844 10.996094 -8.984375 C 9.5625 -7.691406 6.367188 -3.085938 6.367188 -1.515625 C 6.367188 -1.210938 6.558594 -0.800781 6.863281 -0.441406 C 7.136719 -0.109375 7.441406 0.136719 7.71875 0.136719 C 9.371094 0.136719 13.863281 -4.410156 16.261719 -7.027344 C 16.34375 -7.109375 16.207031 -7.332031 16.039062 -7.195312 C 14.277344 -5.539062 10.335938 -1.765625 8.597656 -1.296875 C 8.652344 -2.589844 12.925781 -8.40625 13.613281 -8.957031 Z M 13.613281 -8.957031 "/></g></g></g><g fill="#000000" fill-opacity="1"><g transform="translate(38.729307, 27.596173)"><g><path d="M 9.425781 -9.785156 C 9.371094 -9.234375 7.523438 -7.304688 7.441406 -7.304688 C 7.414062 -7.304688 7.46875 -7.195312 7.496094 -7.195312 C 8.242188 -7.195312 9.976562 -8.847656 10.003906 -9.234375 C 10.085938 -10.03125 9.730469 -11.300781 8.957031 -11.300781 C 6.53125 -11.300781 2.5625 -9.234375 2.121094 -7.136719 C 1.875 -5.925781 3.5 -4.933594 3.804688 -4.546875 C 2.839844 -4.160156 -1.210938 -1.847656 -1.296875 -0.660156 C -1.15625 -0.0546875 -0.855469 0.441406 -0.25 0.441406 C 1.542969 0.441406 5.179688 -1.019531 5.566406 -2.8125 C 5.648438 -3.390625 4.960938 -4.1875 4.601562 -4.464844 C 7.605469 -6.257812 13.0625 -7.691406 12.816406 -7.773438 C 12.816406 -7.855469 12.707031 -7.910156 12.652344 -7.910156 C 12.292969 -7.910156 8.765625 -7.304688 4.355469 -4.824219 C 4.078125 -5.070312 3.417969 -5.511719 3.527344 -5.980469 C 3.886719 -7.277344 8.15625 -9.894531 9.425781 -9.785156 Z M 3.914062 -4.078125 C 3.914062 -3.03125 0.496094 -1.269531 -0.578125 -0.964844 C 0.21875 -1.765625 2.261719 -3.140625 3.914062 -4.078125 Z M 3.914062 -4.078125 "/></g></g></g><g fill="#000000" fill-opacity="1"><g transform="translate(46.529156, 27.596173)"><g><path d="M 3.5 -8.101562 C -0.6875 -2.730469 -6.203125 5.898438 -6.78125 10.527344 C -7 12.210938 -5.761719 13.230469 -4.492188 12.734375 C -5.125 12.652344 -5.125 12.097656 -4.988281 11.410156 C -4.300781 7.332031 -0.414062 1.460938 2.261719 -2.371094 C 7.054688 -7.414062 11.492188 -9.617188 11.90625 -9.617188 C 11.574219 -8.074219 6.613281 -0.9375 3.832031 -0.9375 C 3.253906 -0.9375 2.785156 -1.460938 2.785156 -1.738281 C 2.785156 -1.820312 2.644531 -1.765625 2.644531 -1.625 C 2.644531 -0.714844 3.914062 -0.0273438 4.988281 -0.0273438 C 8.765625 -0.0273438 14.167969 -6.640625 14.167969 -9.121094 C 14.167969 -9.535156 13.203125 -10.582031 12.84375 -10.722656 C 11.464844 -11.191406 6.3125 -7.441406 3.914062 -4.824219 C 3.914062 -4.824219 5.097656 -6.53125 5.457031 -6.972656 C 6.339844 -8.101562 7.304688 -9.234375 7.71875 -9.179688 C 7.910156 -9.148438 7.992188 -9.039062 7.992188 -9.121094 C 7.992188 -9.839844 6.945312 -10.914062 6.3125 -10.914062 C 6.230469 -10.914062 6.0625 -10.886719 5.898438 -10.75 C 5.347656 -10.308594 4.246094 -9.039062 3.5 -8.101562 Z M 3.5 -8.101562 "/></g></g></g><g fill="#000000" fill-opacity="1"><g transform="translate(59.124664, 27.596173)"><g><path d="M 0.714844 0.191406 C 2.425781 0.0546875 6.808594 -4.4375 9.207031 -7.027344 C 9.289062 -7.109375 9.148438 -7.332031 8.957031 -7.195312 C 7.277344 -5.566406 3.253906 -1.738281 1.570312 -1.296875 C 1.902344 -2.425781 5.675781 -8.710938 6.808594 -8.597656 C 7.027344 -8.570312 7.164062 -8.433594 7.164062 -8.542969 C 7.164062 -9.234375 6.0625 -10.335938 5.429688 -10.335938 C 5.320312 -10.335938 5.152344 -10.308594 5.015625 -10.171875 C 3.253906 -8.765625 -0.746094 -2.757812 -0.746094 -1.15625 C -0.746094 -0.660156 -0.0546875 0.0273438 0.386719 0.164062 C 0.523438 0.191406 0.605469 0.191406 0.714844 0.191406 Z M 7.992188 -14.550781 C 7.277344 -14.332031 6.230469 -12.539062 6.257812 -11.742188 C 6.285156 -11.246094 6.863281 -10.667969 7.25 -11.164062 C 7.578125 -11.628906 8.847656 -12.761719 9.316406 -12.953125 C 9.617188 -13.089844 9.839844 -12.980469 9.894531 -12.980469 C 10.003906 -12.980469 9.839844 -13.394531 9.589844 -13.671875 C 9.234375 -14.082031 8.625 -14.636719 7.992188 -14.550781 Z M 7.992188 -14.550781 "/></g></g></g><g fill="#000000" fill-opacity="1"><g transform="translate(65.325938, 27.596173)"><g><path d="M 2.699219 -7.332031 C 1.597656 -5.761719 0.359375 -3.859375 -0.332031 -2.289062 C -0.660156 -1.652344 -0.800781 -1.128906 -0.746094 -0.882812 C -0.550781 -0.109375 0.109375 0.746094 0.910156 0.550781 C 0.304688 0.277344 1.957031 -2.148438 3.363281 -3.664062 C 5.238281 -5.734375 6.53125 -6.835938 9.066406 -8.324219 C 8.351562 -7.496094 7.46875 -5.898438 7.46875 -5.125 C 7.46875 -4.796875 8.296875 -3.832031 8.792969 -3.832031 C 10.695312 -3.832031 14 -6.917969 14.496094 -7.578125 C 14.46875 -7.632812 14.304688 -7.605469 14.277344 -7.578125 C 12.566406 -6.0625 10.667969 -4.824219 9.34375 -4.714844 C 10.253906 -6.863281 12.539062 -8.875 13.148438 -9.507812 C 13.339844 -9.730469 12.210938 -10.914062 11.90625 -10.886719 C 11.328125 -10.832031 10.5 -10.363281 9.425781 -9.589844 C 7.054688 -7.882812 4.300781 -5.566406 2.839844 -3.664062 C 3.417969 -4.683594 4.382812 -5.980469 5.125 -6.972656 C 5.953125 -8.074219 6.917969 -9.148438 7.332031 -9.121094 C 7.550781 -9.09375 7.632812 -8.957031 7.632812 -9.066406 C 7.632812 -9.757812 6.585938 -10.832031 5.925781 -10.832031 C 5.816406 -10.832031 5.707031 -10.804688 5.539062 -10.695312 C 4.851562 -10.140625 3.664062 -8.738281 2.699219 -7.332031 Z M 2.699219 -7.332031 "/></g></g></g><g fill="#000000" fill-opacity="1"><g transform="translate(76.543377, 27.596173)"><g><path d="M 2.8125 -3.722656 C 5.898438 -3.804688 11.191406 -7.773438 11.191406 -9.480469 C 11.191406 -10.253906 9.921875 -10.886719 9.507812 -10.886719 C 8.324219 -10.886719 5.871094 -10.03125 3.582031 -8.128906 C 1.847656 -6.667969 0.441406 -4.933594 -0.21875 -3.363281 C -0.441406 -2.757812 -0.605469 -2.203125 -0.605469 -1.542969 C -0.605469 -0.800781 0.496094 0.191406 1.351562 0.191406 C 5.015625 0.191406 10.5 -5.070312 12.566406 -7 C 12.652344 -7.082031 12.457031 -7.222656 12.375 -7.164062 C 9.589844 -4.851562 4.546875 -1.019531 2.535156 -1.019531 C 1.929688 -1.019531 1.679688 -1.210938 1.707031 -1.542969 C 1.792969 -2.261719 2.316406 -3.140625 2.8125 -3.722656 Z M 10.308594 -10.058594 C 10.140625 -9.011719 5.566406 -4.546875 3.167969 -4.273438 C 4.078125 -5.734375 7.25 -9.066406 10.308594 -10.058594 Z M 10.308594 -10.058594 "/></g></g></g><g fill="#000000" fill-opacity="1"><g transform="translate(21.197814, 34.90976)"><g><path d="M 4.15625 -4.15625 L 4.15625 0 L 3.71875 0 L 3.71875 -1.921875 L 1.109375 -1.921875 L 1.109375 0 L 0.671875 0 L 0.671875 -4.15625 L 1.109375 -4.15625 L 1.109375 -2.296875 L 3.71875 -2.296875 L 3.71875 -4.15625 Z M 4.15625 -4.15625 "/></g></g></g><g fill="#000000" fill-opacity="1"><g transform="translate(26.023957, 34.90976)"><g><path d="M 2.5 0.03125 C 2.082031 0.03125 1.707031 -0.0546875 1.375 -0.234375 C 1.039062 -0.421875 0.78125 -0.675781 0.59375 -1 C 0.40625 -1.320312 0.3125 -1.679688 0.3125 -2.078125 C 0.3125 -2.472656 0.40625 -2.832031 0.59375 -3.15625 C 0.78125 -3.476562 1.039062 -3.726562 1.375 -3.90625 C 1.707031 -4.09375 2.082031 -4.1875 2.5 -4.1875 C 2.90625 -4.1875 3.273438 -4.09375 3.609375 -3.90625 C 3.941406 -3.726562 4.203125 -3.476562 4.390625 -3.15625 C 4.578125 -2.832031 4.671875 -2.472656 4.671875 -2.078125 C 4.671875 -1.679688 4.578125 -1.320312 4.390625 -1 C 4.203125 -0.675781 3.941406 -0.421875 3.609375 -0.234375 C 3.273438 -0.0546875 2.90625 0.03125 2.5 0.03125 Z M 2.5 -0.359375 C 2.820312 -0.359375 3.113281 -0.429688 3.375 -0.578125 C 3.644531 -0.722656 3.851562 -0.925781 4 -1.1875 C 4.15625 -1.457031 4.234375 -1.753906 4.234375 -2.078125 C 4.234375 -2.398438 4.15625 -2.691406 4 -2.953125 C 3.851562 -3.222656 3.644531 -3.429688 3.375 -3.578125 C 3.113281 -3.722656 2.820312 -3.796875 2.5 -3.796875 C 2.164062 -3.796875 1.863281 -3.722656 1.59375 -3.578125 C 1.332031 -3.429688 1.125 -3.222656 0.96875 -2.953125 C 0.820312 -2.691406 0.75 -2.398438 0.75 -2.078125 C 0.75 -1.753906 0.820312 -1.457031 0.96875 -1.1875 C 1.125 -0.925781 1.332031 -0.722656 1.59375 -0.578125 C 1.863281 -0.429688 2.164062 -0.359375 2.5 -0.359375 Z M 2.5 -0.359375 "/></g></g></g><g fill="#000000" fill-opacity="1"><g transform="translate(31.00444, 34.90976)"><g><path d="M 5 -4.15625 L 5 0 L 4.578125 0 L 4.578125 -3.328125 L 2.9375 -0.53125 L 2.734375 -0.53125 L 1.09375 -3.3125 L 1.09375 0 L 0.671875 0 L 0.671875 -4.15625 L 1.046875 -4.15625 L 2.84375 -1.078125 L 4.625 -4.15625 Z M 5 -4.15625 "/></g></g></g><g fill="#000000" fill-opacity="1"><g transform="translate(36.673525, 34.90976)"><g><path d="M 3.609375 -0.375 L 3.609375 0 L 0.671875 0 L 0.671875 -4.15625 L 3.53125 -4.15625 L 3.53125 -3.78125 L 1.109375 -3.78125 L 1.109375 -2.296875 L 3.265625 -2.296875 L 3.265625 -1.921875 L 1.109375 -1.921875 L 1.109375 -0.375 Z M 3.609375 -0.375 "/></g></g></g><g fill="#000000" fill-opacity="1"><g transform="translate(46.499998, 34.909759)"><g><path d="M 3.515625 0 L 2.5625 -1.34375 C 2.457031 -1.320312 2.347656 -1.3125 2.234375 -1.3125 L 1.109375 -1.3125 L 1.109375 0 L 0.671875 0 L 0.671875 -4.15625 L 2.234375 -4.15625 C 2.765625 -4.15625 3.179688 -4.023438 3.484375 -3.765625 C 3.785156 -3.515625 3.9375 -3.171875 3.9375 -2.734375 C 3.9375 -2.410156 3.851562 -2.132812 3.6875 -1.90625 C 3.519531 -1.6875 3.285156 -1.523438 2.984375 -1.421875 L 4 0 Z M 2.21875 -1.6875 C 2.632812 -1.6875 2.945312 -1.773438 3.15625 -1.953125 C 3.375 -2.140625 3.484375 -2.398438 3.484375 -2.734375 C 3.484375 -3.066406 3.375 -3.320312 3.15625 -3.5 C 2.945312 -3.6875 2.632812 -3.78125 2.21875 -3.78125 L 1.109375 -3.78125 L 1.109375 -1.6875 Z M 2.21875 -1.6875 "/></g></g></g><g fill="#000000" fill-opacity="1"><g transform="translate(50.791875, 34.909759)"><g><path d="M 3.609375 -0.375 L 3.609375 0 L 0.671875 0 L 0.671875 -4.15625 L 3.53125 -4.15625 L 3.53125 -3.78125 L 1.109375 -3.78125 L 1.109375 -2.296875 L 3.265625 -2.296875 L 3.265625 -1.921875 L 1.109375 -1.921875 L 1.109375 -0.375 Z M 3.609375 -0.375 "/></g></g></g><g fill="#000000" fill-opacity="1"><g transform="translate(54.763202, 34.909759)"><g><path d="M 5 -4.15625 L 5 0 L 4.578125 0 L 4.578125 -3.328125 L 2.9375 -0.53125 L 2.734375 -0.53125 L 1.09375 -3.3125 L 1.09375 0 L 0.671875 0 L 0.671875 -4.15625 L 1.046875 -4.15625 L 2.84375 -1.078125 L 4.625 -4.15625 Z M 5 -4.15625 "/></g></g></g><g fill="#000000" fill-opacity="1"><g transform="translate(60.432284, 34.909759)"><g><path d="M 2.5 0.03125 C 2.082031 0.03125 1.707031 -0.0546875 1.375 -0.234375 C 1.039062 -0.421875 0.78125 -0.675781 0.59375 -1 C 0.40625 -1.320312 0.3125 -1.679688 0.3125 -2.078125 C 0.3125 -2.472656 0.40625 -2.832031 0.59375 -3.15625 C 0.78125 -3.476562 1.039062 -3.726562 1.375 -3.90625 C 1.707031 -4.09375 2.082031 -4.1875 2.5 -4.1875 C 2.90625 -4.1875 3.273438 -4.09375 3.609375 -3.90625 C 3.941406 -3.726562 4.203125 -3.476562 4.390625 -3.15625 C 4.578125 -2.832031 4.671875 -2.472656 4.671875 -2.078125 C 4.671875 -1.679688 4.578125 -1.320312 4.390625 -1 C 4.203125 -0.675781 3.941406 -0.421875 3.609375 -0.234375 C 3.273438 -0.0546875 2.90625 0.03125 2.5 0.03125 Z M 2.5 -0.359375 C 2.820312 -0.359375 3.113281 -0.429688 3.375 -0.578125 C 3.644531 -0.722656 3.851562 -0.925781 4 -1.1875 C 4.15625 -1.457031 4.234375 -1.753906 4.234375 -2.078125 C 4.234375 -2.398438 4.15625 -2.691406 4 -2.953125 C 3.851562 -3.222656 3.644531 -3.429688 3.375 -3.578125 C 3.113281 -3.722656 2.820312 -3.796875 2.5 -3.796875 C 2.164062 -3.796875 1.863281 -3.722656 1.59375 -3.578125 C 1.332031 -3.429688 1.125 -3.222656 0.96875 -2.953125 C 0.820312 -2.691406 0.75 -2.398438 0.75 -2.078125 C 0.75 -1.753906 0.820312 -1.457031 0.96875 -1.1875 C 1.125 -0.925781 1.332031 -0.722656 1.59375 -0.578125 C 1.863281 -0.429688 2.164062 -0.359375 2.5 -0.359375 Z M 2.5 -0.359375 "/></g></g></g><g fill="#000000" fill-opacity="1"><g transform="translate(65.412763, 34.909759)"><g><path d="M 0.671875 -4.15625 L 2.375 -4.15625 C 2.8125 -4.15625 3.195312 -4.066406 3.53125 -3.890625 C 3.863281 -3.710938 4.125 -3.46875 4.3125 -3.15625 C 4.5 -2.84375 4.59375 -2.484375 4.59375 -2.078125 C 4.59375 -1.671875 4.5 -1.3125 4.3125 -1 C 4.125 -0.6875 3.863281 -0.441406 3.53125 -0.265625 C 3.195312 -0.0859375 2.8125 0 2.375 0 L 0.671875 0 Z M 2.34375 -0.375 C 2.707031 -0.375 3.023438 -0.445312 3.296875 -0.59375 C 3.578125 -0.738281 3.789062 -0.9375 3.9375 -1.1875 C 4.082031 -1.445312 4.15625 -1.742188 4.15625 -2.078125 C 4.15625 -2.410156 4.082031 -2.703125 3.9375 -2.953125 C 3.789062 -3.210938 3.578125 -3.414062 3.296875 -3.5625 C 3.023438 -3.707031 2.707031 -3.78125 2.34375 -3.78125 L 1.109375 -3.78125 L 1.109375 -0.375 Z M 2.34375 -0.375 "/></g></g></g><g fill="#000000" fill-opacity="1"><g transform="translate(70.31607, 34.909759)"><g><path d="M 3.609375 -0.375 L 3.609375 0 L 0.671875 0 L 0.671875 -4.15625 L 3.53125 -4.15625 L 3.53125 -3.78125 L 1.109375 -3.78125 L 1.109375 -2.296875 L 3.265625 -2.296875 L 3.265625 -1.921875 L 1.109375 -1.921875 L 1.109375 -0.375 Z M 3.609375 -0.375 "/></g></g></g><g fill="#000000" fill-opacity="1"><g transform="translate(74.287397, 34.909759)"><g><path d="M 0.671875 -4.15625 L 1.109375 -4.15625 L 1.109375 -0.375 L 3.4375 -0.375 L 3.4375 0 L 0.671875 0 Z M 0.671875 -4.15625 "/></g></g></g><g fill="#000000" fill-opacity="1"><g transform="translate(77.783826, 34.909759)"><g><path d="M 0.671875 -4.15625 L 1.109375 -4.15625 L 1.109375 0 L 0.671875 0 Z M 0.671875 -4.15625 "/></g></g></g><g fill="#000000" fill-opacity="1"><g transform="translate(79.576561, 34.909759)"><g><path d="M 4.15625 -4.15625 L 4.15625 0 L 3.78125 0 L 1.109375 -3.375 L 1.109375 0 L 0.671875 0 L 0.671875 -4.15625 L 1.046875 -4.15625 L 3.71875 -0.78125 L 3.71875 -4.15625 Z M 4.15625 -4.15625 "/></g></g></g><g fill="#000000" fill-opacity="1"><g transform="translate(84.402702, 34.909759)"><g><path d="M 3.609375 -2.078125 L 4.03125 -2.078125 L 4.03125 -0.5 C 3.832031 -0.320312 3.597656 -0.1875 3.328125 -0.09375 C 3.066406 -0.0078125 2.789062 0.03125 2.5 0.03125 C 2.082031 0.03125 1.707031 -0.0546875 1.375 -0.234375 C 1.039062 -0.421875 0.78125 -0.675781 0.59375 -1 C 0.40625 -1.320312 0.3125 -1.679688 0.3125 -2.078125 C 0.3125 -2.472656 0.40625 -2.832031 0.59375 -3.15625 C 0.78125 -3.476562 1.039062 -3.726562 1.375 -3.90625 C 1.707031 -4.09375 2.082031 -4.1875 2.5 -4.1875 C 2.820312 -4.1875 3.113281 -4.132812 3.375 -4.03125 C 3.644531 -3.9375 3.867188 -3.789062 4.046875 -3.59375 L 3.78125 -3.3125 C 3.445312 -3.632812 3.03125 -3.796875 2.53125 -3.796875 C 2.1875 -3.796875 1.878906 -3.722656 1.609375 -3.578125 C 1.335938 -3.429688 1.125 -3.222656 0.96875 -2.953125 C 0.820312 -2.691406 0.75 -2.398438 0.75 -2.078125 C 0.75 -1.753906 0.820312 -1.460938 0.96875 -1.203125 C 1.125 -0.941406 1.335938 -0.734375 1.609375 -0.578125 C 1.878906 -0.429688 2.179688 -0.359375 2.515625 -0.359375 C 2.941406 -0.359375 3.304688 -0.460938 3.609375 -0.671875 Z M 3.609375 -2.078125 "/></g></g></g></svg>
