<svg xmlns="http://www.w3.org/2000/svg" xmlns:xlink="http://www.w3.org/1999/xlink" width="500" zoomAndPan="magnify" viewBox="0 0 375 374.999991" height="375" preserveAspectRatio="xMidYMid meet" version="1.0"><defs><g/></defs><g fill="#000000" fill-opacity="1"><g transform="translate(100.817843, 201.949981)"><g><path d="M 30.621094 1.101562 C 34.335938 -8.175781 59.738281 -34.507812 59.621094 -44.195312 C 59.5625 -46.976562 57.996094 -49.125 53.9375 -49.066406 C 35.550781 -48.832031 1.855469 -23.664062 1.972656 -10.789062 C 2.03125 -9.164062 3.132812 -6.785156 5.566406 -6.84375 C 7.714844 -6.84375 10.613281 -8.410156 10.613281 -8.875 C 10.148438 -8.816406 8.640625 -8.46875 8.003906 -8.46875 C 6.613281 -8.46875 5.859375 -8.527344 5.859375 -9.222656 C 5.742188 -19.023438 40.078125 -47.90625 53.765625 -48.078125 C 55.445312 -48.078125 57.011719 -47.789062 57.011719 -45.644531 C 57.070312 -40.132812 19.253906 1.21875 19.3125 10.730469 C 19.3125 11.65625 22.851562 13.628906 22.851562 12.644531 C 22.792969 9.046875 52.082031 -15.019531 57.941406 -18.847656 C 53.359375 -17.226562 35.03125 -2.609375 30.621094 1.101562 Z M 30.621094 1.101562 "/></g></g></g><g fill="#000000" fill-opacity="1"><g transform="translate(147.446747, 201.949981)"><g><path d="M 28.652344 -18.847656 C 29.40625 -19.488281 27.546875 -22.617188 26.15625 -22.617188 C 24.183594 -22.617188 13.976562 -14.789062 7.480469 -8.410156 C 6.265625 -7.25 5.160156 -6.089844 4.523438 -5.160156 C 5.394531 -6.785156 8.410156 -11.078125 11.136719 -14.671875 C 12.875 -16.933594 15.019531 -19.371094 15.773438 -19.3125 C 16.238281 -19.253906 16.472656 -18.964844 16.472656 -19.195312 C 16.472656 -20.648438 14.265625 -22.910156 12.816406 -22.910156 C 12.644531 -22.910156 12.296875 -22.851562 12.0625 -22.617188 C 10.554688 -21.460938 8.003906 -18.386719 5.914062 -15.425781 C 4 -12.757812 1.796875 -9.335938 0.40625 -6.613281 C -1.042969 -3.945312 -1.332031 -2.378906 -1.21875 -1.972656 C -0.753906 -0.289062 0.636719 1.566406 2.378906 1.160156 C 1.507812 0.753906 1.914062 -0.8125 3.480469 -2.667969 C 4.117188 -3.480469 4.8125 -4.351562 5.566406 -5.105469 C 9.859375 -9.742188 18.386719 -16.761719 23.140625 -18.90625 C 20.125 -16.179688 13.398438 -6.496094 13.398438 -3.191406 C 13.398438 -2.550781 13.804688 -1.683594 14.441406 -0.929688 C 15.019531 -0.230469 15.660156 0.289062 16.238281 0.289062 C 19.71875 0.289062 29.171875 -9.28125 34.21875 -14.789062 C 34.390625 -14.964844 34.101562 -15.425781 33.753906 -15.136719 C 30.042969 -11.65625 21.75 -3.710938 18.09375 -2.726562 C 18.210938 -5.453125 27.199219 -17.6875 28.652344 -18.847656 Z M 28.652344 -18.847656 "/></g></g></g><g fill="#000000" fill-opacity="1"><g transform="translate(174.53095, 201.949981)"><g><path d="M 19.835938 -20.589844 C 19.71875 -19.429688 15.832031 -15.371094 15.660156 -15.371094 C 15.601562 -15.371094 15.71875 -15.136719 15.773438 -15.136719 C 17.339844 -15.136719 20.996094 -18.617188 21.054688 -19.429688 C 21.226562 -21.109375 20.472656 -23.777344 18.847656 -23.777344 C 13.746094 -23.777344 5.394531 -19.429688 4.464844 -15.019531 C 3.945312 -12.46875 7.367188 -10.382812 8.003906 -9.570312 C 5.972656 -8.757812 -2.550781 -3.886719 -2.726562 -1.390625 C -2.4375 -0.117188 -1.796875 0.929688 -0.523438 0.929688 C 3.246094 0.929688 10.902344 -2.144531 11.714844 -5.914062 C 11.890625 -7.132812 10.441406 -8.816406 9.6875 -9.394531 C 16.007812 -13.164062 27.492188 -16.179688 26.96875 -16.355469 C 26.96875 -16.527344 26.738281 -16.644531 26.621094 -16.644531 C 25.867188 -16.644531 18.441406 -15.371094 9.164062 -10.148438 C 8.582031 -10.671875 7.191406 -11.597656 7.421875 -12.585938 C 8.175781 -15.3125 17.167969 -20.820312 19.835938 -20.589844 Z M 8.234375 -8.582031 C 8.234375 -6.378906 1.042969 -2.667969 -1.21875 -2.03125 C 0.464844 -3.710938 4.753906 -6.613281 8.234375 -8.582031 Z M 8.234375 -8.582031 "/></g></g></g><g fill="#000000" fill-opacity="1"><g transform="translate(190.94386, 201.949981)"><g><path d="M 7.367188 -17.050781 C -1.449219 -5.742188 -13.050781 12.410156 -14.265625 22.15625 C -14.730469 25.691406 -12.121094 27.839844 -9.453125 26.792969 C -10.789062 26.621094 -10.789062 25.460938 -10.496094 24.011719 C -9.046875 15.425781 -0.871094 3.074219 4.753906 -4.988281 C 14.847656 -15.601562 24.183594 -20.242188 25.054688 -20.242188 C 24.359375 -16.992188 13.917969 -1.972656 8.0625 -1.972656 C 6.84375 -1.972656 5.859375 -3.074219 5.859375 -3.652344 C 5.859375 -3.828125 5.566406 -3.710938 5.566406 -3.421875 C 5.566406 -1.507812 8.234375 -0.0585938 10.496094 -0.0585938 C 18.441406 -0.0585938 29.8125 -13.976562 29.8125 -19.195312 C 29.8125 -20.066406 27.78125 -22.269531 27.027344 -22.5625 C 24.128906 -23.546875 13.28125 -15.660156 8.234375 -10.148438 C 8.234375 -10.148438 10.730469 -13.746094 11.484375 -14.671875 C 13.339844 -17.050781 15.371094 -19.429688 16.238281 -19.3125 C 16.644531 -19.253906 16.820312 -19.023438 16.820312 -19.195312 C 16.820312 -20.707031 14.617188 -22.96875 13.28125 -22.96875 C 13.109375 -22.96875 12.757812 -22.910156 12.410156 -22.617188 C 11.25 -21.691406 8.929688 -19.023438 7.367188 -17.050781 Z M 7.367188 -17.050781 "/></g></g></g><g fill="#000000" fill-opacity="1"><g transform="translate(217.4481, 201.949981)"><g><path d="M 1.507812 0.40625 C 5.105469 0.117188 14.324219 -9.335938 19.371094 -14.789062 C 19.546875 -14.964844 19.253906 -15.425781 18.847656 -15.136719 C 15.3125 -11.714844 6.84375 -3.652344 3.304688 -2.726562 C 4 -5.105469 11.949219 -18.328125 14.324219 -18.09375 C 14.789062 -18.039062 15.078125 -17.746094 15.078125 -17.980469 C 15.078125 -19.429688 12.757812 -21.75 11.425781 -21.75 C 11.195312 -21.75 10.84375 -21.691406 10.554688 -21.402344 C 6.84375 -18.441406 -1.566406 -5.800781 -1.566406 -2.4375 C -1.566406 -1.390625 -0.117188 0.0585938 0.8125 0.347656 C 1.101562 0.40625 1.277344 0.40625 1.507812 0.40625 Z M 16.820312 -30.621094 C 15.3125 -30.160156 13.109375 -26.390625 13.164062 -24.707031 C 13.222656 -23.664062 14.441406 -22.445312 15.253906 -23.488281 C 15.949219 -24.476562 18.617188 -26.851562 19.601562 -27.257812 C 20.242188 -27.546875 20.707031 -27.316406 20.820312 -27.316406 C 21.054688 -27.316406 20.707031 -28.1875 20.183594 -28.765625 C 19.429688 -29.636719 18.152344 -30.796875 16.820312 -30.621094 Z M 16.820312 -30.621094 "/></g></g></g><g fill="#000000" fill-opacity="1"><g transform="translate(230.497236, 201.949981)"><g><path d="M 5.683594 -15.425781 C 3.363281 -12.121094 0.753906 -8.121094 -0.695312 -4.8125 C -1.390625 -3.480469 -1.683594 -2.378906 -1.566406 -1.855469 C -1.160156 -0.230469 0.230469 1.566406 1.914062 1.160156 C 0.636719 0.578125 4.117188 -4.523438 7.074219 -7.714844 C 11.019531 -12.0625 13.746094 -14.382812 19.082031 -17.515625 C 17.574219 -15.773438 15.71875 -12.410156 15.71875 -10.789062 C 15.71875 -10.089844 17.457031 -8.0625 18.5 -8.0625 C 22.503906 -8.0625 29.460938 -14.558594 30.507812 -15.949219 C 30.449219 -16.066406 30.101562 -16.007812 30.042969 -15.949219 C 26.445312 -12.757812 22.445312 -10.148438 19.660156 -9.917969 C 21.574219 -14.441406 26.390625 -18.675781 27.664062 -20.007812 C 28.070312 -20.472656 25.691406 -22.96875 25.054688 -22.910156 C 23.835938 -22.792969 22.097656 -21.808594 19.835938 -20.183594 C 14.847656 -16.585938 9.046875 -11.714844 5.972656 -7.714844 C 7.191406 -9.859375 9.222656 -12.585938 10.789062 -14.671875 C 12.527344 -16.992188 14.558594 -19.253906 15.425781 -19.195312 C 15.890625 -19.140625 16.066406 -18.847656 16.066406 -19.082031 C 16.066406 -20.53125 13.863281 -22.792969 12.46875 -22.792969 C 12.238281 -22.792969 12.003906 -22.734375 11.65625 -22.503906 C 10.207031 -21.34375 7.714844 -18.386719 5.683594 -15.425781 Z M 5.683594 -15.425781 "/></g></g></g><g fill="#000000" fill-opacity="1"><g transform="translate(254.101669, 201.949981)"><g><path d="M 5.914062 -7.828125 C 12.410156 -8.003906 23.546875 -16.355469 23.546875 -19.949219 C 23.546875 -21.574219 20.878906 -22.910156 20.007812 -22.910156 C 17.515625 -22.910156 12.351562 -21.109375 7.539062 -17.109375 C 3.886719 -14.035156 0.929688 -10.382812 -0.464844 -7.074219 C -0.929688 -5.800781 -1.277344 -4.640625 -1.277344 -3.246094 C -1.277344 -1.683594 1.042969 0.40625 2.84375 0.40625 C 10.554688 0.40625 22.097656 -10.671875 26.445312 -14.730469 C 26.621094 -14.90625 26.214844 -15.195312 26.039062 -15.078125 C 20.183594 -10.207031 9.570312 -2.144531 5.335938 -2.144531 C 4.058594 -2.144531 3.539062 -2.550781 3.597656 -3.246094 C 3.769531 -4.753906 4.871094 -6.613281 5.914062 -7.828125 Z M 21.691406 -21.167969 C 21.34375 -18.964844 11.714844 -9.570312 6.667969 -8.988281 C 8.582031 -12.0625 15.253906 -19.082031 21.691406 -21.167969 Z M 21.691406 -21.167969 "/></g></g></g><g fill="#000000" fill-opacity="1"><g transform="translate(134.930211, 226.499985)"><g><path d="M 3.3125 -3.296875 L 1.875 -1.84375 L 1.875 0 L 1.140625 0 L 1.140625 -7 L 1.875 -7 L 1.875 -2.765625 L 5.984375 -7 L 6.84375 -7 L 3.8125 -3.828125 L 7.046875 0 L 6.171875 0 Z M 3.3125 -3.296875 "/></g></g></g><g fill="#000000" fill-opacity="1"><g transform="translate(142.037403, 226.499985)"><g><path d="M 0.984375 -5.265625 L 1.703125 -5.265625 L 1.703125 0 L 0.984375 0 Z M 1.34375 -6.40625 C 1.195312 -6.40625 1.070312 -6.453125 0.96875 -6.546875 C 0.875 -6.648438 0.828125 -6.773438 0.828125 -6.921875 C 0.828125 -7.054688 0.875 -7.171875 0.96875 -7.265625 C 1.070312 -7.367188 1.195312 -7.421875 1.34375 -7.421875 C 1.488281 -7.421875 1.609375 -7.367188 1.703125 -7.265625 C 1.804688 -7.171875 1.859375 -7.0625 1.859375 -6.9375 C 1.859375 -6.78125 1.804688 -6.648438 1.703125 -6.546875 C 1.609375 -6.453125 1.488281 -6.40625 1.34375 -6.40625 Z M 1.34375 -6.40625 "/></g></g></g><g fill="#000000" fill-opacity="1"><g transform="translate(144.726341, 226.499985)"><g><path d="M 3.765625 -0.3125 C 3.628906 -0.195312 3.460938 -0.109375 3.265625 -0.046875 C 3.066406 0.015625 2.863281 0.046875 2.65625 0.046875 C 2.15625 0.046875 1.769531 -0.0820312 1.5 -0.34375 C 1.238281 -0.613281 1.109375 -0.992188 1.109375 -1.484375 L 1.109375 -4.65625 L 0.171875 -4.65625 L 0.171875 -5.265625 L 1.109375 -5.265625 L 1.109375 -6.40625 L 1.8125 -6.40625 L 1.8125 -5.265625 L 3.421875 -5.265625 L 3.421875 -4.65625 L 1.8125 -4.65625 L 1.8125 -1.515625 C 1.8125 -1.203125 1.890625 -0.960938 2.046875 -0.796875 C 2.210938 -0.640625 2.441406 -0.5625 2.734375 -0.5625 C 2.878906 -0.5625 3.019531 -0.582031 3.15625 -0.625 C 3.289062 -0.675781 3.410156 -0.742188 3.515625 -0.828125 Z M 3.765625 -0.3125 "/></g></g></g><g fill="#000000" fill-opacity="1"><g transform="translate(148.784736, 226.499985)"><g><path d="M 3.171875 0.046875 C 2.648438 0.046875 2.179688 -0.0625 1.765625 -0.28125 C 1.359375 -0.507812 1.035156 -0.828125 0.796875 -1.234375 C 0.566406 -1.648438 0.453125 -2.113281 0.453125 -2.625 C 0.453125 -3.144531 0.566406 -3.609375 0.796875 -4.015625 C 1.035156 -4.421875 1.359375 -4.734375 1.765625 -4.953125 C 2.179688 -5.179688 2.648438 -5.296875 3.171875 -5.296875 C 3.617188 -5.296875 4.019531 -5.207031 4.375 -5.03125 C 4.738281 -4.851562 5.023438 -4.597656 5.234375 -4.265625 L 4.703125 -3.90625 C 4.523438 -4.164062 4.300781 -4.359375 4.03125 -4.484375 C 3.769531 -4.617188 3.484375 -4.6875 3.171875 -4.6875 C 2.785156 -4.6875 2.441406 -4.597656 2.140625 -4.421875 C 1.835938 -4.253906 1.601562 -4.015625 1.4375 -3.703125 C 1.269531 -3.390625 1.1875 -3.03125 1.1875 -2.625 C 1.1875 -2.21875 1.269531 -1.859375 1.4375 -1.546875 C 1.601562 -1.242188 1.835938 -1.003906 2.140625 -0.828125 C 2.441406 -0.660156 2.785156 -0.578125 3.171875 -0.578125 C 3.484375 -0.578125 3.769531 -0.640625 4.03125 -0.765625 C 4.300781 -0.890625 4.523438 -1.082031 4.703125 -1.34375 L 5.234375 -0.984375 C 5.023438 -0.648438 4.738281 -0.394531 4.375 -0.21875 C 4.019531 -0.0390625 3.617188 0.046875 3.171875 0.046875 Z M 3.171875 0.046875 "/></g></g></g><g fill="#000000" fill-opacity="1"><g transform="translate(154.412517, 226.499985)"><g><path d="M 3.671875 -5.296875 C 4.328125 -5.296875 4.847656 -5.101562 5.234375 -4.71875 C 5.628906 -4.34375 5.828125 -3.785156 5.828125 -3.046875 L 5.828125 0 L 5.125 0 L 5.125 -2.984375 C 5.125 -3.523438 4.984375 -3.9375 4.703125 -4.21875 C 4.429688 -4.507812 4.046875 -4.65625 3.546875 -4.65625 C 2.972656 -4.65625 2.519531 -4.488281 2.1875 -4.15625 C 1.863281 -3.820312 1.703125 -3.359375 1.703125 -2.765625 L 1.703125 0 L 0.984375 0 L 0.984375 -7.421875 L 1.703125 -7.421875 L 1.703125 -4.34375 C 1.890625 -4.644531 2.15625 -4.878906 2.5 -5.046875 C 2.84375 -5.210938 3.234375 -5.296875 3.671875 -5.296875 Z M 3.671875 -5.296875 "/></g></g></g><g fill="#000000" fill-opacity="1"><g transform="translate(161.179843, 226.499985)"><g><path d="M 5.5625 -2.40625 L 1.171875 -2.40625 C 1.210938 -1.863281 1.421875 -1.421875 1.796875 -1.078125 C 2.179688 -0.742188 2.660156 -0.578125 3.234375 -0.578125 C 3.566406 -0.578125 3.867188 -0.632812 4.140625 -0.75 C 4.410156 -0.875 4.644531 -1.046875 4.84375 -1.265625 L 5.25 -0.8125 C 5.019531 -0.53125 4.726562 -0.316406 4.375 -0.171875 C 4.019531 -0.0234375 3.632812 0.046875 3.21875 0.046875 C 2.675781 0.046875 2.195312 -0.0664062 1.78125 -0.296875 C 1.363281 -0.523438 1.035156 -0.84375 0.796875 -1.25 C 0.566406 -1.65625 0.453125 -2.113281 0.453125 -2.625 C 0.453125 -3.144531 0.5625 -3.609375 0.78125 -4.015625 C 1.007812 -4.421875 1.316406 -4.734375 1.703125 -4.953125 C 2.097656 -5.179688 2.539062 -5.296875 3.03125 -5.296875 C 3.519531 -5.296875 3.957031 -5.179688 4.34375 -4.953125 C 4.726562 -4.734375 5.03125 -4.421875 5.25 -4.015625 C 5.46875 -3.609375 5.578125 -3.144531 5.578125 -2.625 Z M 3.03125 -4.6875 C 2.519531 -4.6875 2.09375 -4.523438 1.75 -4.203125 C 1.40625 -3.878906 1.210938 -3.457031 1.171875 -2.9375 L 4.90625 -2.9375 C 4.851562 -3.457031 4.65625 -3.878906 4.3125 -4.203125 C 3.96875 -4.523438 3.539062 -4.6875 3.03125 -4.6875 Z M 3.03125 -4.6875 "/></g></g></g><g fill="#000000" fill-opacity="1"><g transform="translate(167.217459, 226.499985)"><g><path d="M 3.671875 -5.296875 C 4.328125 -5.296875 4.847656 -5.101562 5.234375 -4.71875 C 5.628906 -4.34375 5.828125 -3.785156 5.828125 -3.046875 L 5.828125 0 L 5.125 0 L 5.125 -2.984375 C 5.125 -3.523438 4.984375 -3.9375 4.703125 -4.21875 C 4.429688 -4.507812 4.046875 -4.65625 3.546875 -4.65625 C 2.972656 -4.65625 2.519531 -4.488281 2.1875 -4.15625 C 1.863281 -3.820312 1.703125 -3.359375 1.703125 -2.765625 L 1.703125 0 L 0.984375 0 L 0.984375 -5.265625 L 1.671875 -5.265625 L 1.671875 -4.296875 C 1.859375 -4.609375 2.125 -4.851562 2.46875 -5.03125 C 2.8125 -5.207031 3.210938 -5.296875 3.671875 -5.296875 Z M 3.671875 -5.296875 "/></g></g></g><g fill="#000000" fill-opacity="1"><g transform="translate(173.977083, 226.499985)"><g/></g></g><g fill="#000000" fill-opacity="1"><g transform="translate(184.420305, 226.499985)"><g><path d="M 5.921875 0 L 4.3125 -2.25 C 4.132812 -2.226562 3.953125 -2.21875 3.765625 -2.21875 L 1.875 -2.21875 L 1.875 0 L 1.140625 0 L 1.140625 -7 L 3.765625 -7 C 4.648438 -7 5.347656 -6.785156 5.859375 -6.359375 C 6.367188 -5.929688 6.625 -5.34375 6.625 -4.59375 C 6.625 -4.050781 6.484375 -3.59375 6.203125 -3.21875 C 5.929688 -2.84375 5.535156 -2.570312 5.015625 -2.40625 L 6.734375 0 Z M 3.734375 -2.84375 C 4.429688 -2.84375 4.960938 -2.992188 5.328125 -3.296875 C 5.691406 -3.609375 5.875 -4.039062 5.875 -4.59375 C 5.875 -5.164062 5.691406 -5.601562 5.328125 -5.90625 C 4.960938 -6.207031 4.429688 -6.359375 3.734375 -6.359375 L 1.875 -6.359375 L 1.875 -2.84375 Z M 3.734375 -2.84375 "/></g></g></g><g fill="#000000" fill-opacity="1"><g transform="translate(191.647455, 226.499985)"><g><path d="M 5.5625 -2.40625 L 1.171875 -2.40625 C 1.210938 -1.863281 1.421875 -1.421875 1.796875 -1.078125 C 2.179688 -0.742188 2.660156 -0.578125 3.234375 -0.578125 C 3.566406 -0.578125 3.867188 -0.632812 4.140625 -0.75 C 4.410156 -0.875 4.644531 -1.046875 4.84375 -1.265625 L 5.25 -0.8125 C 5.019531 -0.53125 4.726562 -0.316406 4.375 -0.171875 C 4.019531 -0.0234375 3.632812 0.046875 3.21875 0.046875 C 2.675781 0.046875 2.195312 -0.0664062 1.78125 -0.296875 C 1.363281 -0.523438 1.035156 -0.84375 0.796875 -1.25 C 0.566406 -1.65625 0.453125 -2.113281 0.453125 -2.625 C 0.453125 -3.144531 0.5625 -3.609375 0.78125 -4.015625 C 1.007812 -4.421875 1.316406 -4.734375 1.703125 -4.953125 C 2.097656 -5.179688 2.539062 -5.296875 3.03125 -5.296875 C 3.519531 -5.296875 3.957031 -5.179688 4.34375 -4.953125 C 4.726562 -4.734375 5.03125 -4.421875 5.25 -4.015625 C 5.46875 -3.609375 5.578125 -3.144531 5.578125 -2.625 Z M 3.03125 -4.6875 C 2.519531 -4.6875 2.09375 -4.523438 1.75 -4.203125 C 1.40625 -3.878906 1.210938 -3.457031 1.171875 -2.9375 L 4.90625 -2.9375 C 4.851562 -3.457031 4.65625 -3.878906 4.3125 -4.203125 C 3.96875 -4.523438 3.539062 -4.6875 3.03125 -4.6875 Z M 3.03125 -4.6875 "/></g></g></g><g fill="#000000" fill-opacity="1"><g transform="translate(197.685071, 226.499985)"><g><path d="M 7.546875 -5.296875 C 8.210938 -5.296875 8.734375 -5.101562 9.109375 -4.71875 C 9.484375 -4.34375 9.671875 -3.785156 9.671875 -3.046875 L 9.671875 0 L 8.953125 0 L 8.953125 -2.984375 C 8.953125 -3.523438 8.820312 -3.9375 8.5625 -4.21875 C 8.300781 -4.507812 7.929688 -4.65625 7.453125 -4.65625 C 6.898438 -4.65625 6.46875 -4.488281 6.15625 -4.15625 C 5.84375 -3.820312 5.6875 -3.359375 5.6875 -2.765625 L 5.6875 0 L 4.984375 0 L 4.984375 -2.984375 C 4.984375 -3.523438 4.847656 -3.9375 4.578125 -4.21875 C 4.316406 -4.507812 3.941406 -4.65625 3.453125 -4.65625 C 2.921875 -4.65625 2.492188 -4.488281 2.171875 -4.15625 C 1.859375 -3.820312 1.703125 -3.359375 1.703125 -2.765625 L 1.703125 0 L 0.984375 0 L 0.984375 -5.265625 L 1.671875 -5.265625 L 1.671875 -4.296875 C 1.859375 -4.617188 2.117188 -4.863281 2.453125 -5.03125 C 2.785156 -5.207031 3.164062 -5.296875 3.59375 -5.296875 C 4.039062 -5.296875 4.425781 -5.203125 4.75 -5.015625 C 5.070312 -4.828125 5.3125 -4.550781 5.46875 -4.1875 C 5.664062 -4.53125 5.941406 -4.800781 6.296875 -5 C 6.660156 -5.195312 7.078125 -5.296875 7.546875 -5.296875 Z M 7.546875 -5.296875 "/></g></g></g><g fill="#000000" fill-opacity="1"><g transform="translate(208.290882, 226.499985)"><g><path d="M 3.140625 0.046875 C 2.628906 0.046875 2.171875 -0.0664062 1.765625 -0.296875 C 1.359375 -0.523438 1.035156 -0.84375 0.796875 -1.25 C 0.566406 -1.65625 0.453125 -2.113281 0.453125 -2.625 C 0.453125 -3.144531 0.566406 -3.609375 0.796875 -4.015625 C 1.035156 -4.421875 1.359375 -4.734375 1.765625 -4.953125 C 2.171875 -5.179688 2.628906 -5.296875 3.140625 -5.296875 C 3.648438 -5.296875 4.109375 -5.179688 4.515625 -4.953125 C 4.921875 -4.734375 5.238281 -4.421875 5.46875 -4.015625 C 5.695312 -3.609375 5.8125 -3.144531 5.8125 -2.625 C 5.8125 -2.113281 5.695312 -1.65625 5.46875 -1.25 C 5.238281 -0.84375 4.921875 -0.523438 4.515625 -0.296875 C 4.109375 -0.0664062 3.648438 0.046875 3.140625 0.046875 Z M 3.140625 -0.578125 C 3.515625 -0.578125 3.847656 -0.660156 4.140625 -0.828125 C 4.441406 -1.003906 4.675781 -1.25 4.84375 -1.5625 C 5.007812 -1.875 5.09375 -2.226562 5.09375 -2.625 C 5.09375 -3.03125 5.007812 -3.390625 4.84375 -3.703125 C 4.675781 -4.015625 4.441406 -4.253906 4.140625 -4.421875 C 3.847656 -4.597656 3.515625 -4.6875 3.140625 -4.6875 C 2.765625 -4.6875 2.425781 -4.597656 2.125 -4.421875 C 1.832031 -4.253906 1.601562 -4.015625 1.4375 -3.703125 C 1.269531 -3.390625 1.1875 -3.03125 1.1875 -2.625 C 1.1875 -2.226562 1.269531 -1.875 1.4375 -1.5625 C 1.601562 -1.25 1.832031 -1.003906 2.125 -0.828125 C 2.425781 -0.660156 2.765625 -0.578125 3.140625 -0.578125 Z M 3.140625 -0.578125 "/></g></g></g><g fill="#000000" fill-opacity="1"><g transform="translate(214.558411, 226.499985)"><g><path d="M 5.796875 -7.421875 L 5.796875 0 L 5.109375 0 L 5.109375 -1.046875 C 4.898438 -0.691406 4.617188 -0.421875 4.265625 -0.234375 C 3.910156 -0.046875 3.515625 0.046875 3.078125 0.046875 C 2.585938 0.046875 2.140625 -0.0625 1.734375 -0.28125 C 1.335938 -0.507812 1.023438 -0.828125 0.796875 -1.234375 C 0.566406 -1.640625 0.453125 -2.101562 0.453125 -2.625 C 0.453125 -3.144531 0.566406 -3.609375 0.796875 -4.015625 C 1.023438 -4.421875 1.335938 -4.734375 1.734375 -4.953125 C 2.140625 -5.179688 2.585938 -5.296875 3.078125 -5.296875 C 3.503906 -5.296875 3.890625 -5.207031 4.234375 -5.03125 C 4.578125 -4.851562 4.859375 -4.597656 5.078125 -4.265625 L 5.078125 -7.421875 Z M 3.140625 -0.578125 C 3.503906 -0.578125 3.832031 -0.660156 4.125 -0.828125 C 4.425781 -1.003906 4.660156 -1.25 4.828125 -1.5625 C 5.003906 -1.875 5.09375 -2.226562 5.09375 -2.625 C 5.09375 -3.03125 5.003906 -3.390625 4.828125 -3.703125 C 4.660156 -4.015625 4.425781 -4.253906 4.125 -4.421875 C 3.832031 -4.597656 3.503906 -4.6875 3.140625 -4.6875 C 2.765625 -4.6875 2.425781 -4.597656 2.125 -4.421875 C 1.832031 -4.253906 1.601562 -4.015625 1.4375 -3.703125 C 1.269531 -3.390625 1.1875 -3.03125 1.1875 -2.625 C 1.1875 -2.226562 1.269531 -1.875 1.4375 -1.5625 C 1.601562 -1.25 1.832031 -1.003906 2.125 -0.828125 C 2.425781 -0.660156 2.765625 -0.578125 3.140625 -0.578125 Z M 3.140625 -0.578125 "/></g></g></g><g fill="#000000" fill-opacity="1"><g transform="translate(221.335739, 226.499985)"><g><path d="M 5.5625 -2.40625 L 1.171875 -2.40625 C 1.210938 -1.863281 1.421875 -1.421875 1.796875 -1.078125 C 2.179688 -0.742188 2.660156 -0.578125 3.234375 -0.578125 C 3.566406 -0.578125 3.867188 -0.632812 4.140625 -0.75 C 4.410156 -0.875 4.644531 -1.046875 4.84375 -1.265625 L 5.25 -0.8125 C 5.019531 -0.53125 4.726562 -0.316406 4.375 -0.171875 C 4.019531 -0.0234375 3.632812 0.046875 3.21875 0.046875 C 2.675781 0.046875 2.195312 -0.0664062 1.78125 -0.296875 C 1.363281 -0.523438 1.035156 -0.84375 0.796875 -1.25 C 0.566406 -1.65625 0.453125 -2.113281 0.453125 -2.625 C 0.453125 -3.144531 0.5625 -3.609375 0.78125 -4.015625 C 1.007812 -4.421875 1.316406 -4.734375 1.703125 -4.953125 C 2.097656 -5.179688 2.539062 -5.296875 3.03125 -5.296875 C 3.519531 -5.296875 3.957031 -5.179688 4.34375 -4.953125 C 4.726562 -4.734375 5.03125 -4.421875 5.25 -4.015625 C 5.46875 -3.609375 5.578125 -3.144531 5.578125 -2.625 Z M 3.03125 -4.6875 C 2.519531 -4.6875 2.09375 -4.523438 1.75 -4.203125 C 1.40625 -3.878906 1.210938 -3.457031 1.171875 -2.9375 L 4.90625 -2.9375 C 4.851562 -3.457031 4.65625 -3.878906 4.3125 -4.203125 C 3.96875 -4.523438 3.539062 -4.6875 3.03125 -4.6875 Z M 3.03125 -4.6875 "/></g></g></g><g fill="#000000" fill-opacity="1"><g transform="translate(227.373355, 226.499985)"><g><path d="M 0.984375 -7.421875 L 1.703125 -7.421875 L 1.703125 0 L 0.984375 0 Z M 0.984375 -7.421875 "/></g></g></g><g fill="#000000" fill-opacity="1"><g transform="translate(230.062293, 226.499985)"><g><path d="M 0.984375 -5.265625 L 1.703125 -5.265625 L 1.703125 0 L 0.984375 0 Z M 1.34375 -6.40625 C 1.195312 -6.40625 1.070312 -6.453125 0.96875 -6.546875 C 0.875 -6.648438 0.828125 -6.773438 0.828125 -6.921875 C 0.828125 -7.054688 0.875 -7.171875 0.96875 -7.265625 C 1.070312 -7.367188 1.195312 -7.421875 1.34375 -7.421875 C 1.488281 -7.421875 1.609375 -7.367188 1.703125 -7.265625 C 1.804688 -7.171875 1.859375 -7.0625 1.859375 -6.9375 C 1.859375 -6.78125 1.804688 -6.648438 1.703125 -6.546875 C 1.609375 -6.453125 1.488281 -6.40625 1.34375 -6.40625 Z M 1.34375 -6.40625 "/></g></g></g><g fill="#000000" fill-opacity="1"><g transform="translate(232.751231, 226.499985)"><g><path d="M 3.671875 -5.296875 C 4.328125 -5.296875 4.847656 -5.101562 5.234375 -4.71875 C 5.628906 -4.34375 5.828125 -3.785156 5.828125 -3.046875 L 5.828125 0 L 5.125 0 L 5.125 -2.984375 C 5.125 -3.523438 4.984375 -3.9375 4.703125 -4.21875 C 4.429688 -4.507812 4.046875 -4.65625 3.546875 -4.65625 C 2.972656 -4.65625 2.519531 -4.488281 2.1875 -4.15625 C 1.863281 -3.820312 1.703125 -3.359375 1.703125 -2.765625 L 1.703125 0 L 0.984375 0 L 0.984375 -5.265625 L 1.671875 -5.265625 L 1.671875 -4.296875 C 1.859375 -4.609375 2.125 -4.851562 2.46875 -5.03125 C 2.8125 -5.207031 3.210938 -5.296875 3.671875 -5.296875 Z M 3.671875 -5.296875 "/></g></g></g><g fill="#000000" fill-opacity="1"><g transform="translate(239.518557, 226.499985)"><g><path d="M 5.859375 -5.265625 L 5.859375 -0.640625 C 5.859375 0.253906 5.640625 0.914062 5.203125 1.34375 C 4.765625 1.769531 4.109375 1.984375 3.234375 1.984375 C 2.742188 1.984375 2.28125 1.910156 1.84375 1.765625 C 1.40625 1.628906 1.050781 1.4375 0.78125 1.1875 L 1.140625 0.640625 C 1.390625 0.867188 1.695312 1.046875 2.0625 1.171875 C 2.425781 1.296875 2.804688 1.359375 3.203125 1.359375 C 3.867188 1.359375 4.359375 1.203125 4.671875 0.890625 C 4.992188 0.585938 5.15625 0.109375 5.15625 -0.546875 L 5.15625 -1.21875 C 4.925781 -0.882812 4.632812 -0.628906 4.28125 -0.453125 C 3.925781 -0.285156 3.53125 -0.203125 3.09375 -0.203125 C 2.601562 -0.203125 2.15625 -0.304688 1.75 -0.515625 C 1.351562 -0.734375 1.035156 -1.035156 0.796875 -1.421875 C 0.566406 -1.816406 0.453125 -2.265625 0.453125 -2.765625 C 0.453125 -3.253906 0.566406 -3.691406 0.796875 -4.078125 C 1.035156 -4.460938 1.351562 -4.757812 1.75 -4.96875 C 2.144531 -5.1875 2.59375 -5.296875 3.09375 -5.296875 C 3.539062 -5.296875 3.941406 -5.207031 4.296875 -5.03125 C 4.660156 -4.851562 4.957031 -4.59375 5.1875 -4.25 L 5.1875 -5.265625 Z M 3.171875 -0.828125 C 3.546875 -0.828125 3.882812 -0.90625 4.1875 -1.0625 C 4.5 -1.226562 4.738281 -1.457031 4.90625 -1.75 C 5.082031 -2.050781 5.171875 -2.390625 5.171875 -2.765625 C 5.171875 -3.128906 5.082031 -3.457031 4.90625 -3.75 C 4.738281 -4.039062 4.503906 -4.269531 4.203125 -4.4375 C 3.898438 -4.601562 3.554688 -4.6875 3.171875 -4.6875 C 2.785156 -4.6875 2.441406 -4.601562 2.140625 -4.4375 C 1.835938 -4.28125 1.601562 -4.050781 1.4375 -3.75 C 1.269531 -3.457031 1.1875 -3.128906 1.1875 -2.765625 C 1.1875 -2.390625 1.269531 -2.050781 1.4375 -1.75 C 1.601562 -1.457031 1.835938 -1.226562 2.140625 -1.0625 C 2.441406 -0.90625 2.785156 -0.828125 3.171875 -0.828125 Z M 3.171875 -0.828125 "/></g></g></g></svg>